<?xml version="1.0" encoding="UTF-8" standalone="no"?>
<svg
   viewBox="0 0 640 640"
   version="1.1"
   id="svg1"
   sodipodi:docname="email_light.svg"
   inkscape:version="1.3 (0e150ed6c4, 2023-07-21)"
   xmlns:inkscape="http://www.inkscape.org/namespaces/inkscape"
   xmlns:sodipodi="http://sodipodi.sourceforge.net/DTD/sodipodi-0.dtd"
   xmlns="http://www.w3.org/2000/svg"
   xmlns:svg="http://www.w3.org/2000/svg">
  <defs
     id="defs1" />
  <sodipodi:namedview
     id="namedview1"
     pagecolor="#ffffff"
     bordercolor="#000000"
     borderopacity="0.25"
     inkscape:showpageshadow="2"
     inkscape:pageopacity="0.0"
     inkscape:pagecheckerboard="0"
     inkscape:deskcolor="#d1d1d1"
     inkscape:zoom="0.45354271"
     inkscape:cx="288.83719"
     inkscape:cy="338.44663"
     inkscape:window-width="1920"
     inkscape:window-height="1017"
     inkscape:window-x="-8"
     inkscape:window-y="-8"
     inkscape:window-maximized="1"
     inkscape:current-layer="svg1" />
  <!--!Font Awesome Free 7.3.1 by @fontawesome - https://fontawesome.com License - https://fontawesome.com/license/free Copyright 2026 Fonticons, Inc.-->
  <path
     fill="#374151"
     d="m 157.5,170 c -20.70312,0 -37.5,16.79687 -37.5,37.5 0,11.79687 5.54688,22.89062 15,30 l 162.5,121.875 c 13.35937,10 31.64062,10 45,0 L 505,237.5 c 9.45313,-7.10938 15,-18.20313 15,-30 C 520,186.79687 503.20312,170 482.5,170 Z M 120,273.125 V 420 c 0,27.57812 22.42188,50 50,50 h 300 c 27.57813,0 50,-22.42188 50,-50 V 273.125 l -155,116.25 c -26.64063,20 -63.35938,20 -90,0 z"
     id="path1"
     style="stroke-width:0.78125" />
</svg>
